<svg xmlns="http://www.w3.org/2000/svg" xmlns:xlink="http://www.w3.org/1999/xlink" width="40" zoomAndPan="magnify" viewBox="0 0 30 30.000001" height="40" preserveAspectRatio="xMidYMid meet" version="1.0" fill="#ebb428"><defs><clipPath id="e368405d79"><path d="M 0.484375 3.375 L 29.515625 3.375 L 29.515625 25.875 L 0.484375 25.875 Z M 0.484375 3.375 " clip-rule="nonzero"/></clipPath></defs><g clip-path="url(#e368405d79)"><path d="M 28.089844 25.863281 L 1.816406 25.863281 C 1.1875 25.863281 0.683594 25.363281 0.683594 24.746094 C 0.683594 24.125 1.1875 23.625 1.816406 23.625 L 28.089844 23.625 C 28.714844 23.625 29.222656 24.125 29.222656 24.746094 C 29.222656 25.363281 28.714844 25.863281 28.089844 25.863281 Z M 29.316406 14.625 C 29.316406 14.007812 28.8125 13.503906 28.183594 13.503906 L 1.816406 13.503906 C 1.1875 13.503906 0.683594 14.007812 0.683594 14.625 C 0.683594 15.242188 1.1875 15.742188 1.816406 15.742188 L 28.183594 15.742188 C 28.8125 15.742188 29.316406 15.242188 29.316406 14.625 Z M 29.316406 4.503906 C 29.316406 3.886719 28.8125 3.386719 28.183594 3.386719 L 1.816406 3.386719 C 1.1875 3.386719 0.683594 3.886719 0.683594 4.503906 C 0.683594 5.125 1.1875 5.625 1.816406 5.625 L 28.183594 5.625 C 28.8125 5.625 29.316406 5.125 29.316406 4.503906 Z M 29.316406 4.503906 " fill-opacity="1" fill-rule="nonzero"/></g></svg>