<svg xmlns="http://www.w3.org/2000/svg" xmlns:xlink="http://www.w3.org/1999/xlink" width="40" zoomAndPan="magnify" viewBox="0 0 30 30.000001" height="40" preserveAspectRatio="xMidYMid meet" version="1.0"><path fill="#ff3d00" d="M 26.613281 20.503906 C 26.371094 21.773438 25.34375 22.742188 24.074219 22.921875 C 22.078125 23.226562 18.75 23.589844 15 23.589844 C 11.308594 23.589844 7.984375 23.226562 5.925781 22.921875 C 4.65625 22.742188 3.628906 21.773438 3.386719 20.503906 C 3.144531 19.113281 2.902344 17.054688 2.902344 14.515625 C 2.902344 11.976562 3.144531 9.917969 3.386719 8.527344 C 3.628906 7.257812 4.65625 6.289062 5.925781 6.109375 C 7.921875 5.804688 11.25 5.445312 15 5.445312 C 18.75 5.445312 22.015625 5.804688 24.074219 6.109375 C 25.34375 6.289062 26.371094 7.257812 26.613281 8.527344 C 26.855469 9.917969 27.15625 11.976562 27.15625 14.515625 C 27.097656 17.054688 26.855469 19.113281 26.613281 20.503906 Z M 26.613281 20.503906 " fill-opacity="1" fill-rule="nonzero"/><path fill="#ffffff" d="M 12.582031 18.75 L 12.582031 10.28125 L 19.839844 14.515625 Z M 12.582031 18.75 " fill-opacity="1" fill-rule="nonzero"/></svg>