<svg xmlns="http://www.w3.org/2000/svg" xmlns:xlink="http://www.w3.org/1999/xlink" width="500" zoomAndPan="magnify" viewBox="0 0 375 374.999991" height="500" preserveAspectRatio="xMidYMid meet" version="1.0"><path fill="#ebb428" d="M 278.945312 23.757812 L 278.945312 295.476562 L 114.152344 157.957031 L 114.152344 140.84375 L 265.8125 267.394531 L 265.8125 31.664062 C 262.402344 29.953125 258.921875 28.335938 255.382812 26.84375 C 233.890625 17.757812 211.054688 13.140625 187.515625 13.140625 C 163.976562 13.140625 141.132812 17.75 119.648438 26.84375 C 98.878906 35.628906 80.238281 48.203125 64.214844 64.214844 C 48.203125 80.230469 35.621094 98.882812 26.84375 119.640625 C 17.757812 141.132812 13.140625 163.96875 13.140625 187.507812 C 13.140625 211.046875 17.75 233.890625 26.84375 255.375 C 35.628906 276.140625 48.203125 294.785156 64.214844 310.800781 C 68.300781 314.886719 72.566406 318.75 76.984375 322.386719 L 76.984375 339.007812 C 69.203125 333.316406 61.828125 327.003906 54.921875 320.089844 C 37.703125 302.871094 24.183594 282.820312 14.742188 260.492188 C 4.957031 237.382812 0 212.820312 0 187.515625 C 0 162.203125 4.957031 137.648438 14.742188 114.523438 C 24.183594 92.195312 37.703125 72.144531 54.921875 54.921875 C 72.144531 37.703125 92.195312 24.183594 114.523438 14.742188 C 137.648438 4.957031 162.203125 0 187.515625 0 C 212.820312 0 237.382812 4.957031 260.5 14.742188 C 262.289062 15.5 264.054688 16.28125 265.804688 17.089844 C 270.292969 19.144531 274.671875 21.363281 278.945312 23.757812 Z M 63.617188 98.675781 L 63.617188 277.492188 L 76.757812 277.492188 L 76.757812 126.761719 L 88.824219 136.828125 L 88.824219 119.714844 Z M 310.703125 92.832031 L 297.558594 92.832031 L 297.558594 253.429688 L 285.167969 243.082031 L 285.167969 260.195312 L 310.703125 281.507812 Z M 360.28125 114.523438 C 350.839844 92.195312 337.316406 72.144531 320.097656 54.921875 C 312.597656 47.421875 304.554688 40.621094 296.019531 34.558594 L 296.019531 51.003906 C 301.167969 55.105469 306.101562 59.507812 310.808594 64.222656 C 326.820312 80.238281 339.394531 98.886719 348.179688 119.648438 C 357.265625 141.140625 361.875 163.976562 361.875 187.515625 C 361.875 211.054688 357.265625 233.898438 348.179688 255.382812 C 339.394531 276.148438 326.820312 294.792969 310.808594 310.808594 C 294.792969 326.820312 276.140625 339.402344 255.375 348.179688 C 233.882812 357.265625 211.046875 361.882812 187.507812 361.882812 C 163.96875 361.882812 141.125 357.273438 119.640625 348.179688 C 115.859375 346.578125 112.152344 344.851562 108.511719 343.011719 L 108.511719 112.796875 L 259.515625 238.800781 L 259.515625 221.679688 L 95.371094 84.714844 L 95.371094 350.867188 C 99.652344 353.285156 104.035156 355.539062 108.511719 357.613281 C 110.5 358.53125 112.5 359.425781 114.523438 360.273438 C 137.648438 370.050781 162.203125 375.015625 187.515625 375.015625 C 212.820312 375.015625 237.382812 370.058594 260.5 360.273438 C 282.828125 350.832031 302.878906 337.308594 320.097656 320.089844 C 337.316406 302.871094 350.839844 282.820312 360.28125 260.492188 C 370.058594 237.367188 375.023438 212.8125 375.023438 187.5 C 375.023438 162.203125 370.066406 137.648438 360.28125 114.523438 Z M 360.28125 114.523438 " fill-opacity="1" fill-rule="nonzero"/></svg>